# xmcd CD database file
#
# Track frame offsets:
#	150
#	13689
#	30427
#	48892
#	59260
#	71446
#	89056
#	107345
#	126034
#	149705
#	158917
#	173961
#	191321
#	209040
#	222328
#	237288
#	257238
#
# Disc length: 3655 seconds
#
# Revision: 0
# Processed by: cddbd v1.5.2PL0 Copyright (c) Steve Scherf et al.
# Submitted via: CDex 1.79
#
DISCID=f70e4511
DTITLE=Diverse artiesten - Dutch Country music 2014 CD 1
DYEAR=2014
DGENRE=Country
TTITLE0=Raebehah - Dirty rotten shame
TTITLE1=Ezzcape - What lies beneath
TTITLE2=Mark Blomsteel - Someone somewhere tonight
TTITLE3=Amber Jo Ann - Breathless
TTITLE4=Dix - Happy song
TTITLE5=Shirley Ann - Grandma (Tell me 'bout the good ol' days)
TTITLE6=Sandra Vanreys - Ik wil jou
TTITLE7=Don Rosenbaum - No greater love
TTITLE8=The Folk Survival Club - Country boy
TTITLE9=Hans Laduc - My way to Nashville
TTITLE10=Daddy-O (feat. Jos Jongeling) - Gutsy Dutchy
TTITLE11=Laura van den Elzen - Glass
TTITLE12=Terry White Band - Masquerade of a fool
TTITLE13=Jannet Bodewes - Hank and Patsy's ghost
TTITLE14=Cohda (feat. Frank Jansen) - Don't cry
TTITLE15=Johan Jansen - Here goes nothin'
TTITLE16=Herman Brock jr - The old world
EXTD=YEAR: 2014
EXTT0=
EXTT1=
EXTT2=
EXTT3=
EXTT4=
EXTT5=
EXTT6=
EXTT7=
EXTT8=
EXTT9=
EXTT10=
EXTT11=
EXTT12=
EXTT13=
EXTT14=
EXTT15=
EXTT16=
PLAYORDER=
